<svg width="68" height="68" viewBox="0 0 68 68" fill="none" xmlns="http://www.w3.org/2000/svg">
<rect width="68" height="68" rx="10" fill="white"/>
<path d="M47.4223 21.9984L34.3781 18.0451C34.1841 17.985 33.9775 17.985 33.7835 18.0451L20.7413 21.9984C20.5264 22.0662 20.3382 22.2044 20.2047 22.3925C20.0712 22.5805 19.9994 22.8085 20 23.0425V34.9137C20 45.2427 33.2676 48.8204 33.836 48.9672C34.0074 49.0126 34.1871 49.0108 34.3577 48.9621C35.1718 48.7495 48.1732 45.1495 48.1732 34.9137V23.0425C48.1732 22.8072 48.1 22.5783 47.9646 22.39C47.8292 22.2018 47.6389 22.0644 47.4223 21.9984ZM46.0865 34.9137C46.0865 42.8539 35.8401 46.2796 34.0866 46.786C32.3379 46.2796 22.0868 42.8701 22.0868 34.9137V23.8637L34.0866 20.2202L46.0865 23.8587V34.9137Z" fill="#333333"/>
<path d="M33.042 26.7023V27.8426C32.2668 27.9775 31.5687 28.4114 31.0863 29.0582C30.6039 29.705 30.3726 30.5172 30.4383 31.3336C30.504 32.1499 30.862 32.9106 31.441 33.4646C32.02 34.0185 32.7778 34.3251 33.5637 34.3235H35.1287C35.4055 34.3235 35.6708 34.4381 35.8665 34.642C36.0622 34.846 36.1721 35.1226 36.1721 35.4111C36.1721 35.6995 36.0622 35.9761 35.8665 36.1801C35.6708 36.3841 35.4055 36.4987 35.1287 36.4987H31.9996C31.7229 36.4987 31.4575 36.6132 31.2618 36.8172C31.0662 37.0212 30.9562 37.2978 30.9562 37.5862C30.9562 37.8747 31.0662 38.1513 31.2618 38.3553C31.4575 38.5592 31.7229 38.6738 31.9996 38.6738H33.042V39.7614C33.042 40.0498 33.1519 40.3265 33.3476 40.5304C33.5433 40.7344 33.8086 40.849 34.0854 40.849C34.3621 40.849 34.6275 40.7344 34.8231 40.5304C35.0188 40.3265 35.1287 40.0498 35.1287 39.7614V38.6667C35.9589 38.6667 36.7551 38.323 37.3421 37.7111C37.9291 37.0992 38.2589 36.2693 38.2589 35.404C38.2589 34.5387 37.9291 33.7088 37.3421 33.0969C36.7551 32.485 35.9589 32.1412 35.1287 32.1412H33.5647C33.2879 32.1412 33.0225 32.0267 32.8269 31.8227C32.6312 31.6187 32.5213 31.3421 32.5213 31.0537C32.5213 30.7652 32.6312 30.4886 32.8269 30.2846C33.0225 30.0807 33.2879 29.9661 33.5647 29.9661H36.6948C36.9715 29.9661 37.2369 29.8515 37.4325 29.6475C37.6282 29.4436 37.7381 29.1669 37.7381 28.8785C37.7381 28.5901 37.6282 28.3134 37.4325 28.1095C37.2369 27.9055 36.9715 27.7909 36.6948 27.7909H35.1297V26.7023C35.1297 26.5595 35.1027 26.4181 35.0503 26.2861C34.9979 26.1542 34.921 26.0343 34.8241 25.9333C34.7272 25.8323 34.6122 25.7522 34.4856 25.6975C34.359 25.6429 34.2234 25.6147 34.0863 25.6147C33.9493 25.6147 33.8136 25.6429 33.6871 25.6975C33.5605 25.7522 33.4455 25.8323 33.3486 25.9333C33.2517 26.0343 33.1748 26.1542 33.1224 26.2861C33.07 26.4181 33.043 26.5595 33.043 26.7023H33.042Z" fill="#333333"/>
</svg>
