<svg width="38" height="32" viewBox="0 0 38 32" fill="none" xmlns="http://www.w3.org/2000/svg">
<path d="M17.8842 31.9994C17.6521 32.0076 17.4235 31.9356 17.2303 31.7935C17.0371 31.6514 16.889 31.4462 16.8068 31.2067L14.105 23.3842H2.22941C1.9365 23.3842 1.64647 23.3205 1.37587 23.1968C1.10528 23.0731 0.859431 22.8918 0.652389 22.6633C0.445348 22.4347 0.281172 22.1633 0.169231 21.8647C0.0572903 21.5662 -0.000217161 21.2462 6.16218e-07 20.923V2.46121C-0.000110122 2.13735 0.0577456 1.81667 0.170243 1.51753C0.28274 1.21839 0.447678 0.946688 0.655576 0.718024C0.863475 0.48936 1.11024 0.308212 1.38174 0.184999C1.65324 0.0617854 1.94413 -0.0010694 2.23771 1.37646e-05H17.8543C18.066 4.00622e-06 18.2734 0.066439 18.4521 0.191584C18.6309 0.316728 18.7737 0.495424 18.8638 0.706752L22.2369 8.61516H35.7062C35.9991 8.61516 36.2892 8.67883 36.5597 8.80254C36.8303 8.92625 37.0762 9.10756 37.2832 9.33613C37.4903 9.56469 37.6544 9.83603 37.7664 10.1346C37.8783 10.4332 37.9358 10.7532 37.9356 11.0764V29.5373C37.9357 29.8611 37.8779 30.1818 37.7654 30.481C37.6529 30.7801 37.4879 31.0518 37.28 31.2804C37.0721 31.5091 36.8254 31.6902 36.5539 31.8135C36.2824 31.9367 35.9915 31.9995 35.6979 31.9984L17.8842 31.9994ZM17.1424 2.46121H2.23771C2.23771 2.46121 2.23771 8.61516 2.23771 20.9221H25.0241L17.1424 2.46121ZM23.2837 11.0764L27.7856 21.6288C27.8887 21.8707 27.9176 22.143 27.868 22.4046C27.8183 22.6662 27.6928 22.9029 27.5104 23.0789L20.8197 29.5373H35.6979C35.6979 29.5373 35.6979 23.3833 35.6979 11.0764H23.2837ZM18.3226 28.6769L23.8066 23.3833H16.4927L18.3226 28.6769Z" fill="#333333"/>
</svg>
