<svg width="68" height="68" viewBox="0 0 68 68" fill="none" xmlns="http://www.w3.org/2000/svg">
<rect width="68" height="68" rx="10" fill="white"/>
<path d="M27.3583 39.6376C27.8968 39.6376 28.3332 39.2111 28.3332 38.685C28.3332 38.1589 27.8968 37.7324 27.3583 37.7324C26.8199 37.7324 26.3834 38.1589 26.3834 38.685C26.3834 39.2111 26.8199 39.6376 27.3583 39.6376Z" fill="#333333"/>
<path d="M50.3715 18H28.5118V28.6421H18V50H39.8587V39.3579H50.3715V18ZM48.671 22.5507L39.8606 31.1593V28.6421H36.6203L45.7339 19.7372L45.6583 19.6634H48.671V22.5516V22.5507ZM38.1573 39.3044C36.6968 39.0644 34.4295 38.794 33.6142 41.4782C32.9817 43.06 32.1177 44.5437 31.0493 45.8831C30.4479 46.6472 29.9278 47.4693 29.4971 48.3366H26.8019C26.7958 47.063 27.2254 45.8239 28.0224 44.816C28.3951 44.4048 28.8273 44.049 29.3054 43.7601C30.1018 43.3147 30.7797 42.6922 31.2841 41.9431C31.7885 41.194 32.1052 40.3394 32.2085 39.4484C32.4966 37.857 32.2995 36.218 31.6416 34.7352C31.0316 33.3395 30.821 31.8081 31.0323 30.3045H33.5244C33.5944 30.6442 33.6548 30.9959 33.7134 31.3669C34.0705 33.4679 34.5145 36.082 37.3723 37.5183C37.5319 37.5986 37.6358 37.654 37.702 37.6918C37.8291 37.8209 37.9844 37.9203 38.1564 37.9826V39.3044H38.1573ZM24.3286 40.7813C24.2393 39.9338 24.2962 39.0776 24.4968 38.2484C24.7382 37.4208 25.1327 36.6434 25.6607 35.9546C26.8907 34.3154 27.5526 32.3352 27.5501 30.3027H29.3224C29.1187 32.0037 29.3669 33.7274 30.0432 35.3075C30.5994 36.5252 30.7692 37.8779 30.5307 39.1909C30.4619 39.859 30.2259 40.5003 29.8435 41.0583C29.4611 41.6162 28.9441 42.0737 28.338 42.3902C27.7213 42.7676 27.167 43.2345 26.6942 43.7748C25.6548 45.0769 25.0935 46.6826 25.1005 48.3339H23.3225C24.1437 45.9018 24.4851 43.3396 24.3286 40.7832V40.7813ZM38.1573 36.0414H38.1507C36.0534 34.9872 35.7322 33.0968 35.3921 31.0956C35.3477 30.8343 35.2977 30.5694 35.2514 30.3054H38.1573V36.0414ZM30.2142 27.1679L37.8975 19.6606H43.3986L34.2094 28.6393H30.2142V27.1679ZM35.4913 19.6624L30.2142 24.8187V19.6624H35.4913ZM22.3457 30.3045C21.946 31.7764 21.4146 33.2112 20.7576 34.5921C20.4109 35.3971 20.0491 36.238 19.7024 37.1094V30.3045H22.3457ZM19.7005 42.9939C20.2667 40.3193 21.147 37.7175 22.3239 35.2401C23.0905 33.6638 23.6763 32.0094 24.0707 30.3073H25.8468C25.8485 32.0123 25.285 33.672 24.2408 35.038C23.6056 35.8801 23.1328 36.8281 22.8454 37.8358C22.5997 38.8275 22.525 39.8523 22.6244 40.8681C22.7691 43.4035 22.4025 45.9421 21.5455 48.3394H19.7024V42.9939H19.7005ZM31.4083 48.3366C31.7002 47.8751 32.1064 47.3046 32.4418 46.8366C33.6215 45.3551 34.5661 43.7083 35.2438 41.9518C35.6264 40.6918 36.3151 40.6826 38.043 40.9724L38.1564 40.9909V48.3366H31.4083ZM39.8587 33.5103L48.6691 24.9018V30.5057L41.3108 37.6955H39.8587V33.5103ZM43.7169 37.6955L48.6691 32.8568V37.6955H43.7169Z" fill="#333333"/>
</svg>
